<svg viewBox="0 0 1600 900" xmlns="http://www.w3.org/2000/svg" preserveAspectRatio="xMidYMid slice">
  <defs>
    <pattern id="hatch" width="34" height="34" patternUnits="userSpaceOnUse" patternTransform="rotate(135)">
      <line x1="0" y1="0" x2="0" y2="34" stroke="#C9BEA8" stroke-width="0.6"/>
    </pattern>
    <pattern id="water" width="20" height="20" patternUnits="userSpaceOnUse">
      <path d="M 0 10 Q 5 6 10 10 Q 15 14 20 10" fill="none" stroke="#AEA390" stroke-width="0.5" stroke-opacity="0.45"/>
    </pattern>
    <pattern id="citygrid" width="22" height="22" patternUnits="userSpaceOnUse">
      <line x1="0" y1="0" x2="22" y2="0" stroke="#AEA390" stroke-width="0.35" stroke-opacity="0.5"/>
      <line x1="0" y1="0" x2="0" y2="22" stroke="#AEA390" stroke-width="0.35" stroke-opacity="0.5"/>
    </pattern>
  </defs>

  <rect width="1600" height="900" fill="#EEE4D2"/>
  <rect width="1600" height="900" fill="url(#hatch)" opacity="0.4"/>
  <rect x="24" y="24" width="1552" height="852" fill="none" stroke="#AEA390" stroke-width="0.75"/>

  <g font-family="ui-monospace, monospace" font-size="12" letter-spacing="2" fill="#857B6E">
    <text x="48" y="64">PLATE III · LOCATION</text>
    <text x="1552" y="64" text-anchor="end">22.457° N · 113.314° E</text>
    <text x="48" y="862">PEARL RIVER DELTA · CHINA</text>
    <text x="1552" y="862" text-anchor="end">SCALE 1 : 400,000</text>
  </g>

  <path d="M 60 620 Q 180 640 320 600 Q 420 580 540 600 Q 700 620 860 590 Q 1000 580 1200 610 Q 1380 640 1540 620 L 1540 860 L 60 860 Z"
        fill="url(#water)"/>
  <path d="M 60 620 Q 180 640 320 600 Q 420 580 540 600 Q 700 620 860 590 Q 1000 580 1200 610 Q 1380 640 1540 620"
        fill="none" stroke="#342920" stroke-width="1.1" stroke-opacity="0.6"/>

  <path d="M 100 100 L 1500 100 L 1500 580 Q 1380 602 1200 580 Q 1000 550 860 560 Q 700 590 540 570 Q 420 552 320 572 Q 180 612 100 590 Z"
        fill="url(#citygrid)" opacity="0.65"/>

  <g stroke="#342920" stroke-width="0.8" fill="none" opacity="0.7">
    <line x1="100" y1="180" x2="1500" y2="180" stroke-width="1.2"/>
    <line x1="100" y1="260" x2="1500" y2="260" stroke-dasharray="5 4"/>
    <line x1="100" y1="360" x2="1500" y2="340" stroke-dasharray="5 4"/>
    <line x1="100" y1="440" x2="1500" y2="420" stroke-dasharray="3 3"/>
    <line x1="100" y1="520" x2="1500" y2="500" stroke-dasharray="3 3"/>
    <line x1="260" y1="100" x2="260" y2="600" stroke-dasharray="5 4"/>
    <line x1="460" y1="100" x2="460" y2="600" stroke-dasharray="5 4"/>
    <line x1="620" y1="100" x2="620" y2="600" stroke-width="1.2"/>
    <line x1="880" y1="100" x2="880" y2="600" stroke-dasharray="5 4"/>
    <line x1="1080" y1="100" x2="1080" y2="600" stroke-dasharray="5 4"/>
    <line x1="1280" y1="100" x2="1280" y2="600" stroke-dasharray="5 4"/>
  </g>

  <g font-family="ui-monospace, monospace" font-size="9" letter-spacing="1.4" fill="#857B6E" opacity="0.55">
    <text x="108" y="176">G105 · NATIONAL ROAD</text>
    <text x="1220" y="436">EAST RING EXPRESSWAY</text>
    <text x="890" y="136">SHAXI DIST.</text>
    <text x="370" y="320">XIAOLAN</text>
    <text x="130" y="500">SHIQI</text>
    <text x="1340" y="560">LINGDING BAY</text>
    <text x="120" y="760">PEARL RIVER ESTUARY</text>
  </g>

  <g stroke="#342920" stroke-width="1" fill="none" opacity="0.6">
    <path d="M 680 380 Q 780 360 880 380 Q 980 400 1080 380" stroke-dasharray="2 3"/>
    <path d="M 880 380 Q 900 320 960 300 Q 1020 280 1060 290"/>
  </g>

  <g>
    <circle cx="1020" cy="290" r="26" fill="#996D56" fill-opacity="0.15" stroke="#996D56" stroke-width="1.2"/>
    <circle cx="1020" cy="290" r="14" fill="#996D56" fill-opacity="0.5" stroke="#996D56" stroke-width="1.2"/>
    <circle cx="1020" cy="290" r="5" fill="#996D56"/>
    <line x1="1020" y1="264" x2="1020" y2="220" stroke="#996D56" stroke-width="0.8" stroke-dasharray="3 3"/>
  </g>
  <g font-family="ui-monospace, monospace" font-size="11" letter-spacing="1.8" fill="#342920">
    <text x="1020" y="210" text-anchor="middle">THE FACTORY</text>
    <text x="1020" y="196" text-anchor="middle" font-size="9" fill="#857B6E">◉ ABSTRACT · 01</text>
  </g>

  <g stroke="#342920" stroke-width="0.8" fill="#EEE4D2" opacity="0.9">
    <circle cx="460" cy="420" r="5"/>
    <circle cx="720" cy="500" r="5"/>
    <circle cx="1220" cy="460" r="5"/>
    <circle cx="340" cy="200" r="5"/>
  </g>
  <g font-family="ui-monospace, monospace" font-size="9" letter-spacing="1.4" fill="#857B6E" opacity="0.7">
    <text x="472" y="416">ZHONGSHAN STN</text>
    <text x="732" y="496">CIVIC CTR</text>
    <text x="1232" y="456">ZUH JINWAN →</text>
    <text x="352" y="196">SHIQI OLD TOWN</text>
  </g>

  <g font-family="ui-monospace, monospace" font-size="9" letter-spacing="1.4" fill="#857B6E" opacity="0.7">
    <circle cx="1230" cy="430" r="3" fill="#342920" fill-opacity="0.6" stroke-opacity="0"/>
    <path d="M 1230 427 L 1230 410 M 1226 418 L 1234 418" stroke="#342920" stroke-width="0.8" stroke-opacity="0.5"/>
  </g>

  <g opacity="0.7">
    <rect x="1280" y="780" width="240" height="56" fill="#EEE4D2" stroke="#AEA390" stroke-width="0.75"/>
    <line x1="1300" y1="810" x2="1380" y2="810" stroke="#342920" stroke-width="1.2"/>
    <line x1="1300" y1="806" x2="1300" y2="814" stroke="#342920" stroke-width="1.2"/>
    <line x1="1340" y1="806" x2="1340" y2="814" stroke="#342920" stroke-width="1"/>
    <line x1="1380" y1="806" x2="1380" y2="814" stroke="#342920" stroke-width="1.2"/>
    <text x="1300" y="826" font-family="ui-monospace, monospace" font-size="8" letter-spacing="1.3" fill="#857B6E">0</text>
    <text x="1340" y="826" font-family="ui-monospace, monospace" font-size="8" letter-spacing="1.3" fill="#857B6E">2</text>
    <text x="1380" y="826" font-family="ui-monospace, monospace" font-size="8" letter-spacing="1.3" fill="#857B6E">4 km</text>
    <text x="1400" y="800" font-family="ui-monospace, monospace" font-size="9" letter-spacing="1.5" fill="#857B6E">N ↑</text>
  </g>
</svg>
