<svg viewBox="0 0 600 800" xmlns="http://www.w3.org/2000/svg" preserveAspectRatio="xMidYMid slice">
  <defs>
    <pattern id="hatch" width="28" height="28" patternUnits="userSpaceOnUse" patternTransform="rotate(135)">
      <line x1="0" y1="0" x2="0" y2="28" stroke="#C9BEA8" stroke-width="0.6"/>
    </pattern>
    <pattern id="mesh" width="7" height="7" patternUnits="userSpaceOnUse">
      <circle cx="3.5" cy="3.5" r="0.7" fill="#342920" fill-opacity="0.3"/>
    </pattern>
  </defs>

  <rect width="600" height="800" fill="#EEE4D2"/>
  <rect width="600" height="800" fill="url(#hatch)" opacity="0.55"/>
  <rect x="20" y="20" width="560" height="760" fill="none" stroke="#AEA390" stroke-width="0.75"/>

  <g font-family="ui-monospace, monospace" font-size="10" letter-spacing="1.8" fill="#857B6E">
    <text x="42" y="58">04 · SPORT</text>
    <text x="558" y="58" text-anchor="end">04.1</text>
    <text x="42" y="762">RECYCLED PES · VENTILATED</text>
    <text x="558" y="762" text-anchor="end">S — 2XL</text>
  </g>

  <g stroke="#857B6E" stroke-width="0.6" opacity="0.5">
    <line x1="36" y1="240" x2="46" y2="240"/>
    <line x1="36" y1="340" x2="46" y2="340"/>
    <line x1="36" y1="440" x2="46" y2="440"/>
    <line x1="36" y1="540" x2="46" y2="540"/>
    <line x1="554" y1="240" x2="564" y2="240"/>
    <line x1="554" y1="340" x2="564" y2="340"/>
    <line x1="554" y1="440" x2="564" y2="440"/>
    <line x1="554" y1="540" x2="564" y2="540"/>
  </g>

  <g transform="translate(175, 240)" fill="none" stroke="#342920" stroke-width="1.3" stroke-linecap="round" stroke-linejoin="round">
    <rect x="0" y="0" width="250" height="36" fill="#342920" fill-opacity="0.22"/>
    <rect x="0" y="0" width="250" height="36"/>
    <line x1="8" y1="12" x2="242" y2="12" stroke-opacity="0.35"/>
    <line x1="8" y1="24" x2="242" y2="24" stroke-opacity="0.35"/>

    <line x1="0" y1="36" x2="0" y2="260"/>
    <line x1="250" y1="36" x2="250" y2="260"/>
    <path d="M 0 260 Q 20 288 55 292 L 95 292 Q 122 290 125 260"/>
    <path d="M 125 260 Q 128 290 155 292 L 195 292 Q 230 288 250 260"/>

    <path d="M 125 36 Q 108 100 104 180 Q 112 240 125 255" stroke-opacity="0.6"/>
    <path d="M 125 36 Q 142 100 146 180 Q 138 240 125 255" stroke-opacity="0.6"/>

    <path d="M 4 36 L 246 36" stroke-dasharray="3 3" stroke-opacity="0.45"/>

    <rect x="32" y="90" width="36" height="90" fill="url(#mesh)" stroke-opacity="0"/>
    <rect x="182" y="90" width="36" height="90" fill="url(#mesh)" stroke-opacity="0"/>

    <rect x="30" y="88" width="40" height="94" stroke-opacity="0.3"/>
    <rect x="180" y="88" width="40" height="94" stroke-opacity="0.3"/>
  </g>

  <g font-family="ui-monospace, monospace" font-size="8" letter-spacing="1.4" fill="#857B6E" opacity="0.6">
    <text x="80" y="640">FIG 04</text>
    <text x="520" y="640" text-anchor="end">VENT A/B</text>
  </g>
</svg>
