<svg viewBox="0 0 600 800" xmlns="http://www.w3.org/2000/svg" preserveAspectRatio="xMidYMid slice">
  <defs>
    <pattern id="hatch" width="28" height="28" patternUnits="userSpaceOnUse" patternTransform="rotate(135)">
      <line x1="0" y1="0" x2="0" y2="28" stroke="#C9BEA8" stroke-width="0.6"/>
    </pattern>
  </defs>

  <rect width="600" height="800" fill="#EEE4D2"/>
  <rect width="600" height="800" fill="url(#hatch)" opacity="0.55"/>
  <rect x="20" y="20" width="560" height="760" fill="none" stroke="#AEA390" stroke-width="0.75"/>

  <g font-family="ui-monospace, monospace" font-size="10" letter-spacing="1.8" fill="#857B6E">
    <text x="42" y="58">PLATE VII · FUNCTIONAL</text>
    <text x="558" y="58" text-anchor="end">07.1</text>
    <text x="42" y="762">WICKING · QUICK-DRY</text>
    <text x="558" y="762" text-anchor="end">S — 2XL</text>
  </g>

  <g stroke="#857B6E" stroke-width="0.6" opacity="0.5">
    <line x1="36" y1="240" x2="46" y2="240"/>
    <line x1="36" y1="340" x2="46" y2="340"/>
    <line x1="36" y1="440" x2="46" y2="440"/>
    <line x1="36" y1="540" x2="46" y2="540"/>
    <line x1="554" y1="240" x2="564" y2="240"/>
    <line x1="554" y1="340" x2="564" y2="340"/>
    <line x1="554" y1="440" x2="564" y2="440"/>
    <line x1="554" y1="540" x2="564" y2="540"/>
  </g>

  <g transform="translate(175, 240)" fill="none" stroke="#342920" stroke-width="1.3" stroke-linecap="round" stroke-linejoin="round">
    <rect x="0" y="0" width="250" height="40" fill="#996D56" fill-opacity="0.3"/>
    <rect x="0" y="0" width="250" height="40"/>
    <line x1="8" y1="13" x2="242" y2="13" stroke-opacity="0.35"/>
    <line x1="8" y1="27" x2="242" y2="27" stroke-opacity="0.35"/>

    <line x1="0" y1="40" x2="0" y2="270"/>
    <line x1="250" y1="40" x2="250" y2="270"/>
    <path d="M 0 270 Q 20 298 55 302 L 95 302 Q 122 300 125 270"/>
    <path d="M 125 270 Q 128 300 155 302 L 195 302 Q 230 298 250 270"/>

    <path d="M 125 40 Q 108 108 104 188 Q 112 248 125 266" stroke-opacity="0.6"/>
    <path d="M 125 40 Q 142 108 146 188 Q 138 248 125 266" stroke-opacity="0.6"/>

    <path d="M 4 40 L 246 40" stroke-dasharray="3 3" stroke-opacity="0.45"/>
  </g>

  <g transform="translate(175, 240)" fill="none" stroke="#996D56" stroke-width="0.8" stroke-opacity="0.55">
    <path d="M 48 80 Q 58 130 48 180" stroke-dasharray="2 3"/>
    <path d="M 68 100 Q 78 140 68 190" stroke-dasharray="2 3"/>
    <path d="M 182 80 Q 192 130 182 180" stroke-dasharray="2 3"/>
    <path d="M 202 100 Q 212 140 202 190" stroke-dasharray="2 3"/>
    <path d="M 90 210 Q 100 235 90 260" stroke-dasharray="2 3"/>
    <path d="M 160 210 Q 170 235 160 260" stroke-dasharray="2 3"/>
  </g>

  <g font-family="ui-monospace, monospace" font-size="8" letter-spacing="1.4" fill="#857B6E" opacity="0.6">
    <text x="80" y="650">§ FIG. 07</text>
    <text x="520" y="650" text-anchor="end">WICK Ø</text>
  </g>
</svg>
