<svg viewBox="0 0 600 800" xmlns="http://www.w3.org/2000/svg" preserveAspectRatio="xMidYMid slice">
  <defs>
    <pattern id="hatch" width="28" height="28" patternUnits="userSpaceOnUse" patternTransform="rotate(135)">
      <line x1="0" y1="0" x2="0" y2="28" stroke="#C9BEA8" stroke-width="0.6"/>
    </pattern>
    <pattern id="knit" width="6" height="6" patternUnits="userSpaceOnUse">
      <path d="M 0 3 Q 1.5 0 3 3 Q 4.5 6 6 3" fill="none" stroke="#342920" stroke-width="0.4" stroke-opacity="0.4"/>
    </pattern>
  </defs>

  <rect width="600" height="800" fill="#EEE4D2"/>
  <rect width="600" height="800" fill="url(#hatch)" opacity="0.55"/>
  <rect x="20" y="20" width="560" height="760" fill="none" stroke="#AEA390" stroke-width="0.75"/>

  <g font-family="ui-monospace, monospace" font-size="10" letter-spacing="1.8" fill="#857B6E">
    <text x="42" y="58">PLATE V · SEAMLESS</text>
    <text x="558" y="58" text-anchor="end">05.1</text>
    <text x="42" y="762">3D KNIT · NO-SHADOW</text>
    <text x="558" y="762" text-anchor="end">S — XL</text>
  </g>

  <g stroke="#857B6E" stroke-width="0.6" opacity="0.5">
    <line x1="36" y1="240" x2="46" y2="240"/>
    <line x1="36" y1="340" x2="46" y2="340"/>
    <line x1="36" y1="440" x2="46" y2="440"/>
    <line x1="36" y1="540" x2="46" y2="540"/>
    <line x1="554" y1="240" x2="564" y2="240"/>
    <line x1="554" y1="340" x2="564" y2="340"/>
    <line x1="554" y1="440" x2="564" y2="440"/>
    <line x1="554" y1="540" x2="564" y2="540"/>
  </g>

  <g transform="translate(175, 240)" fill="none" stroke="#342920" stroke-width="1.3" stroke-linecap="round" stroke-linejoin="round">
    <path d="M 0 0 Q 125 -6 250 0 L 250 30 Q 125 24 0 30 Z" fill="url(#knit)"/>
    <path d="M 0 0 Q 125 -6 250 0 L 250 30 Q 125 24 0 30 Z"/>

    <line x1="0" y1="30" x2="0" y2="250"/>
    <line x1="250" y1="30" x2="250" y2="250"/>
    <path d="M 0 250 Q 20 278 55 282 L 95 282 Q 122 280 125 250"/>
    <path d="M 125 250 Q 128 280 155 282 L 195 282 Q 230 278 250 250"/>

    <path d="M 0 30 L 250 30" stroke-dasharray="3 3" stroke-opacity="0"/>

    <rect x="0" y="30" width="250" height="220" fill="url(#knit)" stroke-opacity="0"/>
  </g>

  <g transform="translate(175, 240)" fill="none" stroke="#342920" stroke-width="0.8" stroke-opacity="0.5">
    <path d="M 125 30 Q 118 100 115 180 Q 120 235 125 248"/>
    <path d="M 125 30 Q 132 100 135 180 Q 130 235 125 248"/>
  </g>

  <g font-family="ui-monospace, monospace" font-size="8" letter-spacing="1.4" fill="#857B6E" opacity="0.6">
    <text x="80" y="620">§ FIG. 05</text>
    <text x="520" y="620" text-anchor="end">KNIT 3D</text>
  </g>
</svg>
